<svg xmlns="http://www.w3.org/2000/svg" width="80" height="20" viewBox="0 0 80 20">
    <path fill="#FFF" fill-rule="evenodd" d="M64.37 11.277l9.747-10.219a3.335 3.335 0 0 1 4.874 0c1.345 1.411 1.345 3.699 0 5.11L66.806 18.942a3.335 3.335 0 0 1-4.874 0l-9.747-10.22-9.748 10.22a3.335 3.335 0 0 1-4.874 0l-9.748-10.22-9.747 10.22a3.335 3.335 0 0 1-4.874 0L1.009 6.168c-1.345-1.411-1.345-3.699 0-5.11a3.335 3.335 0 0 1 4.874 0l9.748 10.22 9.748-10.22a3.335 3.335 0 0 1 4.873 0L40 11.278l9.748-10.22a3.335 3.335 0 0 1 4.873 0l9.748 10.22z" opacity=".1"/>
</svg>
