<svg xmlns="http://www.w3.org/2000/svg" width="40" height="10" viewBox="0 0 40 10">
    <path fill="#FFF" fill-rule="evenodd" d="M37.058.53a1.667 1.667 0 0 1 2.437 0c.673.705.673 1.848 0 2.554L33.403 9.47a1.667 1.667 0 0 1-2.437 0l-4.874-5.11-4.874 5.11a1.667 1.667 0 0 1-2.436 0l-4.874-5.11-4.874 5.11a1.667 1.667 0 0 1-2.437 0L.505 3.084a1.869 1.869 0 0 1 0-2.555 1.667 1.667 0 0 1 2.437 0l4.873 5.11L12.69.529a1.667 1.667 0 0 1 2.437 0L20 5.64l4.874-5.11a1.667 1.667 0 0 1 2.437 0l4.874 5.11 4.873-5.11z"/>
</svg>
